mtllib pride_monorail_steel.mtl
v -0.50000 0.20000 -0.42000
v 0.50000 0.20000 -0.42000
v 0.50000 0.30000 -0.42000
v -0.50000 0.30000 -0.42000
v -0.50000 0.20000 0.42000
v 0.50000 0.20000 0.42000
v 0.50000 0.30000 0.42000
v -0.50000 0.30000 0.42000
v -0.50000 -1.30000 -0.30000
v 0.50000 -1.30000 -0.30000
v 0.50000 0.20000 -0.30000
v -0.50000 0.20000 -0.30000
v -0.50000 -1.30000 0.30000
v 0.50000 -1.30000 0.30000
v 0.50000 0.20000 0.30000
v -0.50000 0.20000 0.30000
v -0.50000 -1.40000 -0.42000
v 0.50000 -1.40000 -0.42000
v 0.50000 -1.30000 -0.42000
v -0.50000 -1.30000 -0.42000
v -0.50000 -1.40000 0.42000
v 0.50000 -1.40000 0.42000
v 0.50000 -1.30000 0.42000
v -0.50000 -1.30000 0.42000
v -0.10000 -1.30000 -0.32000
v 0.10000 -1.30000 -0.32000
v 0.10000 0.20000 -0.32000
v -0.10000 0.20000 -0.32000
v -0.10000 -1.30000 0.32000
v 0.10000 -1.30000 0.32000
v 0.10000 0.20000 0.32000
v -0.10000 0.20000 0.32000
v -0.50000 -0.20000 -0.36000
v 0.50000 -0.20000 -0.36000
v 0.50000 -0.10000 -0.36000
v -0.50000 -0.10000 -0.36000
v -0.50000 -0.20000 -0.30000
v 0.50000 -0.20000 -0.30000
v 0.50000 -0.10000 -0.30000
v -0.50000 -0.10000 -0.30000
v -0.50000 -0.20000 0.30000
v 0.50000 -0.20000 0.30000
v 0.50000 -0.10000 0.30000
v -0.50000 -0.10000 0.30000
v -0.50000 -0.20000 0.36000
v 0.50000 -0.20000 0.36000
v 0.50000 -0.10000 0.36000
v -0.50000 -0.10000 0.36000
vt 0.062500 0.937500
vt 0.187500 0.937500
vt 0.312500 0.937500
vt 0.437500 0.937500
vt 0.562500 0.937500
vt 0.687500 0.937500
vt 0.812500 0.937500
vt 0.937500 0.937500
vt 0.062500 0.812500
vt 0.187500 0.812500
vt 0.312500 0.812500
vt 0.437500 0.812500
vt 0.562500 0.812500
vt 0.687500 0.812500
vt 0.812500 0.812500
vt 0.937500 0.812500
vt 0.062500 0.687500
vt 0.187500 0.687500
vt 0.312500 0.687500
vt 0.437500 0.687500
vt 0.562500 0.687500
vt 0.687500 0.687500
vt 0.812500 0.687500
vt 0.937500 0.687500
vn 0 0 -1
vn 0 0 1
vn 0 -1 0
vn 0 1 0
vn -1 0 0
vn 1 0 0
o RAIL_BASE
usemtl palette
f 1/5/1 4/5/1 3/5/1 2/5/1
f 5/5/2 6/5/2 7/5/2 8/5/2
f 1/5/3 2/5/3 6/5/3 5/5/3
f 4/5/4 8/5/4 7/5/4 3/5/4
f 1/5/5 5/5/5 8/5/5 4/5/5
f 2/5/6 3/5/6 7/5/6 6/5/6
f 9/4/1 12/4/1 11/4/1 10/4/1
f 13/4/2 14/4/2 15/4/2 16/4/2
f 9/4/3 10/4/3 14/4/3 13/4/3
f 12/4/4 16/4/4 15/4/4 11/4/4
f 9/4/5 13/4/5 16/4/5 12/4/5
f 10/4/6 11/4/6 15/4/6 14/4/6
f 17/5/1 20/5/1 19/5/1 18/5/1
f 21/5/2 22/5/2 23/5/2 24/5/2
f 17/5/3 18/5/3 22/5/3 21/5/3
f 20/5/4 24/5/4 23/5/4 19/5/4
f 17/5/5 21/5/5 24/5/5 20/5/5
f 18/5/6 19/5/6 23/5/6 22/5/6
f 25/5/1 28/5/1 27/5/1 26/5/1
f 29/5/2 30/5/2 31/5/2 32/5/2
f 25/5/3 26/5/3 30/5/3 29/5/3
f 28/5/4 32/5/4 31/5/4 27/5/4
f 25/5/5 29/5/5 32/5/5 28/5/5
f 26/5/6 27/5/6 31/5/6 30/5/6
o RAIL_LEFT
usemtl palette
f 33/6/1 36/6/1 35/6/1 34/6/1
f 37/6/2 38/6/2 39/6/2 40/6/2
f 33/6/3 34/6/3 38/6/3 37/6/3
f 36/6/4 40/6/4 39/6/4 35/6/4
f 33/6/5 37/6/5 40/6/5 36/6/5
f 34/6/6 35/6/6 39/6/6 38/6/6
o RAIL_RIGHT
usemtl palette
f 41/5/1 44/5/1 43/5/1 42/5/1
f 45/5/2 46/5/2 47/5/2 48/5/2
f 41/5/3 42/5/3 46/5/3 45/5/3
f 44/5/4 48/5/4 47/5/4 43/5/4
f 41/5/5 45/5/5 48/5/5 44/5/5
f 42/5/6 43/5/6 47/5/6 46/5/6
