mtllib pride_maglev_pride.mtl
v -0.50000 0.05000 -1.10000
v 0.50000 0.05000 -1.10000
v 0.50000 0.30000 -1.10000
v -0.50000 0.30000 -1.10000
v -0.50000 0.05000 1.10000
v 0.50000 0.05000 1.10000
v 0.50000 0.30000 1.10000
v -0.50000 0.30000 1.10000
v -0.50000 -1.40000 -0.35000
v 0.50000 -1.40000 -0.35000
v 0.50000 0.05000 -0.35000
v -0.50000 0.05000 -0.35000
v -0.50000 -1.40000 0.35000
v 0.50000 -1.40000 0.35000
v 0.50000 0.05000 0.35000
v -0.50000 0.05000 0.35000
v -0.50000 0.29000 -0.06000
v 0.50000 0.29000 -0.06000
v 0.50000 0.31000 -0.06000
v -0.50000 0.31000 -0.06000
v -0.50000 0.29000 0.06000
v 0.50000 0.29000 0.06000
v 0.50000 0.31000 0.06000
v -0.50000 0.31000 0.06000
v -0.50000 0.12000 -1.12000
v 0.50000 0.12000 -1.12000
v 0.50000 0.18000 -1.12000
v -0.50000 0.18000 -1.12000
v -0.50000 0.12000 1.12000
v 0.50000 0.12000 1.12000
v 0.50000 0.18000 1.12000
v -0.50000 0.18000 1.12000
v -0.50000 0.18000 -1.12000
v 0.50000 0.18000 -1.12000
v 0.50000 0.24000 -1.12000
v -0.50000 0.24000 -1.12000
v -0.50000 0.18000 1.12000
v 0.50000 0.18000 1.12000
v 0.50000 0.24000 1.12000
v -0.50000 0.24000 1.12000
v -0.50000 -0.05000 -1.10000
v 0.50000 -0.05000 -1.10000
v 0.50000 0.05000 -1.10000
v -0.50000 0.05000 -1.10000
v -0.50000 -0.05000 -0.80000
v 0.50000 -0.05000 -0.80000
v 0.50000 0.05000 -0.80000
v -0.50000 0.05000 -0.80000
v -0.50000 0.05000 -1.14000
v 0.50000 0.05000 -1.14000
v 0.50000 0.30000 -1.14000
v -0.50000 0.30000 -1.14000
v -0.50000 0.05000 -1.10000
v 0.50000 0.05000 -1.10000
v 0.50000 0.30000 -1.10000
v -0.50000 0.30000 -1.10000
v -0.50000 -0.05000 0.80000
v 0.50000 -0.05000 0.80000
v 0.50000 0.05000 0.80000
v -0.50000 0.05000 0.80000
v -0.50000 -0.05000 1.10000
v 0.50000 -0.05000 1.10000
v 0.50000 0.05000 1.10000
v -0.50000 0.05000 1.10000
v -0.50000 0.05000 1.10000
v 0.50000 0.05000 1.10000
v 0.50000 0.30000 1.10000
v -0.50000 0.30000 1.10000
v -0.50000 0.05000 1.14000
v 0.50000 0.05000 1.14000
v 0.50000 0.30000 1.14000
v -0.50000 0.30000 1.14000
vt 0.062500 0.937500
vt 0.187500 0.937500
vt 0.312500 0.937500
vt 0.437500 0.937500
vt 0.562500 0.937500
vt 0.687500 0.937500
vt 0.812500 0.937500
vt 0.937500 0.937500
vt 0.062500 0.812500
vt 0.187500 0.812500
vt 0.312500 0.812500
vt 0.437500 0.812500
vt 0.562500 0.812500
vt 0.687500 0.812500
vt 0.812500 0.812500
vt 0.937500 0.812500
vt 0.062500 0.687500
vt 0.187500 0.687500
vt 0.312500 0.687500
vt 0.437500 0.687500
vt 0.562500 0.687500
vt 0.687500 0.687500
vt 0.812500 0.687500
vt 0.937500 0.687500
vn 0 0 -1
vn 0 0 1
vn 0 -1 0
vn 0 1 0
vn -1 0 0
vn 1 0 0
o RAIL_BASE
usemtl palette
f 1/3/1 4/3/1 3/3/1 2/3/1
f 5/3/2 6/3/2 7/3/2 8/3/2
f 1/3/3 2/3/3 6/3/3 5/3/3
f 4/3/4 8/3/4 7/3/4 3/3/4
f 1/3/5 5/3/5 8/3/5 4/3/5
f 2/3/6 3/3/6 7/3/6 6/3/6
f 9/1/1 12/1/1 11/1/1 10/1/1
f 13/1/2 14/1/2 15/1/2 16/1/2
f 9/1/3 10/1/3 14/1/3 13/1/3
f 12/1/4 16/1/4 15/1/4 11/1/4
f 9/1/5 13/1/5 16/1/5 12/1/5
f 10/1/6 11/1/6 15/1/6 14/1/6
f 17/9/1 20/9/1 19/9/1 18/9/1
f 21/9/2 22/9/2 23/9/2 24/9/2
f 17/9/3 18/9/3 22/9/3 21/9/3
f 20/9/4 24/9/4 23/9/4 19/9/4
f 17/9/5 21/9/5 24/9/5 20/9/5
f 18/9/6 19/9/6 23/9/6 22/9/6
f 25/14/1 28/14/1 27/14/1 26/14/1
f 29/14/2 30/14/2 31/14/2 32/14/2
f 25/14/3 26/14/3 30/14/3 29/14/3
f 28/14/4 32/14/4 31/14/4 27/14/4
f 25/14/5 29/14/5 32/14/5 28/14/5
f 26/14/6 27/14/6 31/14/6 30/14/6
f 33/13/1 36/13/1 35/13/1 34/13/1
f 37/13/2 38/13/2 39/13/2 40/13/2
f 33/13/3 34/13/3 38/13/3 37/13/3
f 36/13/4 40/13/4 39/13/4 35/13/4
f 33/13/5 37/13/5 40/13/5 36/13/5
f 34/13/6 35/13/6 39/13/6 38/13/6
o RAIL_LEFT
usemtl palette
f 41/7/1 44/7/1 43/7/1 42/7/1
f 45/7/2 46/7/2 47/7/2 48/7/2
f 41/7/3 42/7/3 46/7/3 45/7/3
f 44/7/4 48/7/4 47/7/4 43/7/4
f 41/7/5 45/7/5 48/7/5 44/7/5
f 42/7/6 43/7/6 47/7/6 46/7/6
f 49/8/1 52/8/1 51/8/1 50/8/1
f 53/8/2 54/8/2 55/8/2 56/8/2
f 49/8/3 50/8/3 54/8/3 53/8/3
f 52/8/4 56/8/4 55/8/4 51/8/4
f 49/8/5 53/8/5 56/8/5 52/8/5
f 50/8/6 51/8/6 55/8/6 54/8/6
o RAIL_RIGHT
usemtl palette
f 57/7/1 60/7/1 59/7/1 58/7/1
f 61/7/2 62/7/2 63/7/2 64/7/2
f 57/7/3 58/7/3 62/7/3 61/7/3
f 60/7/4 64/7/4 63/7/4 59/7/4
f 57/7/5 61/7/5 64/7/5 60/7/5
f 58/7/6 59/7/6 63/7/6 62/7/6
f 65/8/1 68/8/1 67/8/1 66/8/1
f 69/8/2 70/8/2 71/8/2 72/8/2
f 65/8/3 66/8/3 70/8/3 69/8/3
f 68/8/4 72/8/4 71/8/4 67/8/4
f 65/8/5 69/8/5 72/8/5 68/8/5
f 66/8/6 67/8/6 71/8/6 70/8/6
