mtllib pride_thirdrail.mtl
v -0.50000 -0.06000 -1.62000
v 0.50000 -0.06000 -1.62000
v 0.50000 0.08000 -1.62000
v -0.50000 0.08000 -1.62000
v -0.50000 -0.06000 1.62000
v 0.50000 -0.06000 1.62000
v 0.50000 0.08000 1.62000
v -0.50000 0.08000 1.62000
v -0.50000 0.08000 -1.45000
v 0.50000 0.08000 -1.45000
v 0.50000 0.12000 -1.45000
v -0.50000 0.12000 -1.45000
v -0.50000 0.08000 1.45000
v 0.50000 0.08000 1.45000
v 0.50000 0.12000 1.45000
v -0.50000 0.12000 1.45000
v -0.13000 0.12000 -1.25000
v 0.13000 0.12000 -1.25000
v 0.13000 0.22000 -1.25000
v -0.13000 0.22000 -1.25000
v -0.13000 0.12000 1.25000
v 0.13000 0.12000 1.25000
v 0.13000 0.22000 1.25000
v -0.13000 0.22000 1.25000
v -0.09000 0.22000 0.66000
v 0.09000 0.22000 0.66000
v 0.09000 0.24000 0.66000
v -0.09000 0.24000 0.66000
v -0.09000 0.22000 0.86000
v 0.09000 0.22000 0.86000
v 0.09000 0.24000 0.86000
v -0.09000 0.24000 0.86000
v -0.09000 0.22000 -0.86000
v 0.09000 0.22000 -0.86000
v 0.09000 0.24000 -0.86000
v -0.09000 0.24000 -0.86000
v -0.09000 0.22000 -0.66000
v 0.09000 0.22000 -0.66000
v 0.09000 0.24000 -0.66000
v -0.09000 0.24000 -0.66000
v -0.08000 0.12000 -1.44000
v 0.08000 0.12000 -1.44000
v 0.08000 0.30000 -1.44000
v -0.08000 0.30000 -1.44000
v -0.08000 0.12000 -1.30000
v 0.08000 0.12000 -1.30000
v 0.08000 0.30000 -1.30000
v -0.08000 0.30000 -1.30000
v -0.50000 0.30000 -1.43000
v 0.50000 0.30000 -1.43000
v 0.50000 0.40000 -1.43000
v -0.50000 0.40000 -1.43000
v -0.50000 0.30000 -1.31000
v 0.50000 0.30000 -1.31000
v 0.50000 0.40000 -1.31000
v -0.50000 0.40000 -1.31000
v -0.50000 0.40000 -1.40000
v 0.50000 0.40000 -1.40000
v 0.50000 0.41000 -1.40000
v -0.50000 0.41000 -1.40000
v -0.50000 0.40000 -1.34000
v 0.50000 0.40000 -1.34000
v 0.50000 0.41000 -1.34000
v -0.50000 0.41000 -1.34000
v -0.06000 0.12000 -1.52000
v 0.06000 0.12000 -1.52000
v 0.06000 0.52000 -1.52000
v -0.06000 0.52000 -1.52000
v -0.06000 0.12000 -1.48000
v 0.06000 0.12000 -1.48000
v 0.06000 0.52000 -1.48000
v -0.06000 0.52000 -1.48000
v -0.50000 0.50000 -1.52000
v 0.50000 0.50000 -1.52000
v 0.50000 0.53000 -1.52000
v -0.50000 0.53000 -1.52000
v -0.50000 0.50000 -1.24000
v 0.50000 0.50000 -1.24000
v 0.50000 0.53000 -1.24000
v -0.50000 0.53000 -1.24000
v -0.50000 0.22000 0.67900
v 0.50000 0.22000 0.67900
v 0.50000 0.25000 0.67900
v -0.50000 0.25000 0.67900
v -0.50000 0.22000 0.83200
v 0.50000 0.22000 0.83200
v 0.50000 0.25000 0.83200
v -0.50000 0.25000 0.83200
v -0.50000 0.25000 0.74500
v 0.50000 0.25000 0.74500
v 0.50000 0.33000 0.74500
v -0.50000 0.33000 0.74500
v -0.50000 0.25000 0.76600
v 0.50000 0.25000 0.76600
v 0.50000 0.33000 0.76600
v -0.50000 0.33000 0.76600
v -0.50000 0.33000 0.71750
v 0.50000 0.33000 0.71750
v 0.50000 0.36800 0.71750
v -0.50000 0.36800 0.71750
v -0.50000 0.33000 0.79370
v 0.50000 0.33000 0.79370
v 0.50000 0.36800 0.79370
v -0.50000 0.36800 0.79370
v -0.50000 0.22000 -0.83200
v 0.50000 0.22000 -0.83200
v 0.50000 0.25000 -0.83200
v -0.50000 0.25000 -0.83200
v -0.50000 0.22000 -0.67900
v 0.50000 0.22000 -0.67900
v 0.50000 0.25000 -0.67900
v -0.50000 0.25000 -0.67900
v -0.50000 0.25000 -0.76600
v 0.50000 0.25000 -0.76600
v 0.50000 0.33000 -0.76600
v -0.50000 0.33000 -0.76600
v -0.50000 0.25000 -0.74500
v 0.50000 0.25000 -0.74500
v 0.50000 0.33000 -0.74500
v -0.50000 0.33000 -0.74500
v -0.50000 0.33000 -0.79370
v 0.50000 0.33000 -0.79370
v 0.50000 0.36800 -0.79370
v -0.50000 0.36800 -0.79370
v -0.50000 0.33000 -0.71750
v 0.50000 0.33000 -0.71750
v 0.50000 0.36800 -0.71750
v -0.50000 0.36800 -0.71750
vt 0.062500 0.937500
vt 0.187500 0.937500
vt 0.312500 0.937500
vt 0.437500 0.937500
vt 0.562500 0.937500
vt 0.687500 0.937500
vt 0.812500 0.937500
vt 0.937500 0.937500
vt 0.062500 0.812500
vt 0.187500 0.812500
vt 0.312500 0.812500
vt 0.437500 0.812500
vt 0.562500 0.812500
vt 0.687500 0.812500
vt 0.812500 0.812500
vt 0.937500 0.812500
vt 0.062500 0.687500
vt 0.187500 0.687500
vt 0.312500 0.687500
vt 0.437500 0.687500
vt 0.562500 0.687500
vt 0.687500 0.687500
vt 0.812500 0.687500
vt 0.937500 0.687500
vn 0 0 -1
vn 0 0 1
vn 0 -1 0
vn 0 1 0
vn -1 0 0
vn 1 0 0
o RAIL_BASE
usemtl palette
f 1/18/1 4/18/1 3/18/1 2/18/1
f 5/18/2 6/18/2 7/18/2 8/18/2
f 1/18/3 2/18/3 6/18/3 5/18/3
f 4/18/4 8/18/4 7/18/4 3/18/4
f 1/18/5 5/18/5 8/18/5 4/18/5
f 2/18/6 3/18/6 7/18/6 6/18/6
f 9/17/1 12/17/1 11/17/1 10/17/1
f 13/17/2 14/17/2 15/17/2 16/17/2
f 9/17/3 10/17/3 14/17/3 13/17/3
f 12/17/4 16/17/4 15/17/4 11/17/4
f 9/17/5 13/17/5 16/17/5 12/17/5
f 10/17/6 11/17/6 15/17/6 14/17/6
f 17/19/1 20/19/1 19/19/1 18/19/1
f 21/19/2 22/19/2 23/19/2 24/19/2
f 17/19/3 18/19/3 22/19/3 21/19/3
f 20/19/4 24/19/4 23/19/4 19/19/4
f 17/19/5 21/19/5 24/19/5 20/19/5
f 18/19/6 19/19/6 23/19/6 22/19/6
f 25/24/1 28/24/1 27/24/1 26/24/1
f 29/24/2 30/24/2 31/24/2 32/24/2
f 25/24/3 26/24/3 30/24/3 29/24/3
f 28/24/4 32/24/4 31/24/4 27/24/4
f 25/24/5 29/24/5 32/24/5 28/24/5
f 26/24/6 27/24/6 31/24/6 30/24/6
f 33/24/1 36/24/1 35/24/1 34/24/1
f 37/24/2 38/24/2 39/24/2 40/24/2
f 33/24/3 34/24/3 38/24/3 37/24/3
f 36/24/4 40/24/4 39/24/4 35/24/4
f 33/24/5 37/24/5 40/24/5 36/24/5
f 34/24/6 35/24/6 39/24/6 38/24/6
f 41/23/1 44/23/1 43/23/1 42/23/1
f 45/23/2 46/23/2 47/23/2 48/23/2
f 41/23/3 42/23/3 46/23/3 45/23/3
f 44/23/4 48/23/4 47/23/4 43/23/4
f 41/23/5 45/23/5 48/23/5 44/23/5
f 42/23/6 43/23/6 47/23/6 46/23/6
f 49/4/1 52/4/1 51/4/1 50/4/1
f 53/4/2 54/4/2 55/4/2 56/4/2
f 49/4/3 50/4/3 54/4/3 53/4/3
f 52/4/4 56/4/4 55/4/4 51/4/4
f 49/4/5 53/4/5 56/4/5 52/4/5
f 50/4/6 51/4/6 55/4/6 54/4/6
f 57/6/1 60/6/1 59/6/1 58/6/1
f 61/6/2 62/6/2 63/6/2 64/6/2
f 57/6/3 58/6/3 62/6/3 61/6/3
f 60/6/4 64/6/4 63/6/4 59/6/4
f 57/6/5 61/6/5 64/6/5 60/6/5
f 58/6/6 59/6/6 63/6/6 62/6/6
f 65/24/1 68/24/1 67/24/1 66/24/1
f 69/24/2 70/24/2 71/24/2 72/24/2
f 65/24/3 66/24/3 70/24/3 69/24/3
f 68/24/4 72/24/4 71/24/4 67/24/4
f 65/24/5 69/24/5 72/24/5 68/24/5
f 66/24/6 67/24/6 71/24/6 70/24/6
f 73/22/1 76/22/1 75/22/1 74/22/1
f 77/22/2 78/22/2 79/22/2 80/22/2
f 73/22/3 74/22/3 78/22/3 77/22/3
f 76/22/4 80/22/4 79/22/4 75/22/4
f 73/22/5 77/22/5 80/22/5 76/22/5
f 74/22/6 75/22/6 79/22/6 78/22/6
o RAIL_LEFT
usemtl palette
f 81/21/1 84/21/1 83/21/1 82/21/1
f 85/21/2 86/21/2 87/21/2 88/21/2
f 81/21/3 82/21/3 86/21/3 85/21/3
f 84/21/4 88/21/4 87/21/4 83/21/4
f 81/21/5 85/21/5 88/21/5 84/21/5
f 82/21/6 83/21/6 87/21/6 86/21/6
f 89/21/1 92/21/1 91/21/1 90/21/1
f 93/21/2 94/21/2 95/21/2 96/21/2
f 89/21/3 90/21/3 94/21/3 93/21/3
f 92/21/4 96/21/4 95/21/4 91/21/4
f 89/21/5 93/21/5 96/21/5 92/21/5
f 90/21/6 91/21/6 95/21/6 94/21/6
f 97/20/1 100/20/1 99/20/1 98/20/1
f 101/20/2 102/20/2 103/20/2 104/20/2
f 97/20/3 98/20/3 102/20/3 101/20/3
f 100/20/4 104/20/4 103/20/4 99/20/4
f 97/20/5 101/20/5 104/20/5 100/20/5
f 98/20/6 99/20/6 103/20/6 102/20/6
o RAIL_RIGHT
usemtl palette
f 105/21/1 108/21/1 107/21/1 106/21/1
f 109/21/2 110/21/2 111/21/2 112/21/2
f 105/21/3 106/21/3 110/21/3 109/21/3
f 108/21/4 112/21/4 111/21/4 107/21/4
f 105/21/5 109/21/5 112/21/5 108/21/5
f 106/21/6 107/21/6 111/21/6 110/21/6
f 113/21/1 116/21/1 115/21/1 114/21/1
f 117/21/2 118/21/2 119/21/2 120/21/2
f 113/21/3 114/21/3 118/21/3 117/21/3
f 116/21/4 120/21/4 119/21/4 115/21/4
f 113/21/5 117/21/5 120/21/5 116/21/5
f 114/21/6 115/21/6 119/21/6 118/21/6
f 121/20/1 124/20/1 123/20/1 122/20/1
f 125/20/2 126/20/2 127/20/2 128/20/2
f 121/20/3 122/20/3 126/20/3 125/20/3
f 124/20/4 128/20/4 127/20/4 123/20/4
f 121/20/5 125/20/5 128/20/5 124/20/5
f 122/20/6 123/20/6 127/20/6 126/20/6
