mtllib pride_monorail.mtl
v -0.50000 -1.70000 -0.40000
v 0.50000 -1.70000 -0.40000
v 0.50000 0.30000 -0.40000
v -0.50000 0.30000 -0.40000
v -0.50000 -1.70000 0.40000
v 0.50000 -1.70000 0.40000
v 0.50000 0.30000 0.40000
v -0.50000 0.30000 0.40000
v -0.50000 0.26000 -0.36000
v 0.50000 0.26000 -0.36000
v 0.50000 0.30000 -0.36000
v -0.50000 0.30000 -0.36000
v -0.50000 0.26000 0.36000
v 0.50000 0.26000 0.36000
v 0.50000 0.30000 0.36000
v -0.50000 0.30000 0.36000
v -0.50000 -1.74000 -0.44000
v 0.50000 -1.74000 -0.44000
v 0.50000 -1.70000 -0.44000
v -0.50000 -1.70000 -0.44000
v -0.50000 -1.74000 0.44000
v 0.50000 -1.74000 0.44000
v 0.50000 -1.70000 0.44000
v -0.50000 -1.70000 0.44000
v -0.50000 -0.30000 -0.46000
v 0.50000 -0.30000 -0.46000
v 0.50000 -0.18000 -0.46000
v -0.50000 -0.18000 -0.46000
v -0.50000 -0.30000 -0.40000
v 0.50000 -0.30000 -0.40000
v 0.50000 -0.18000 -0.40000
v -0.50000 -0.18000 -0.40000
v -0.50000 -0.30000 0.40000
v 0.50000 -0.30000 0.40000
v 0.50000 -0.18000 0.40000
v -0.50000 -0.18000 0.40000
v -0.50000 -0.30000 0.46000
v 0.50000 -0.30000 0.46000
v 0.50000 -0.18000 0.46000
v -0.50000 -0.18000 0.46000
vt 0.062500 0.937500
vt 0.187500 0.937500
vt 0.312500 0.937500
vt 0.437500 0.937500
vt 0.562500 0.937500
vt 0.687500 0.937500
vt 0.812500 0.937500
vt 0.937500 0.937500
vt 0.062500 0.812500
vt 0.187500 0.812500
vt 0.312500 0.812500
vt 0.437500 0.812500
vt 0.562500 0.812500
vt 0.687500 0.812500
vt 0.812500 0.812500
vt 0.937500 0.812500
vt 0.062500 0.687500
vt 0.187500 0.687500
vt 0.312500 0.687500
vt 0.437500 0.687500
vt 0.562500 0.687500
vt 0.687500 0.687500
vt 0.812500 0.687500
vt 0.937500 0.687500
vn 0 0 -1
vn 0 0 1
vn 0 -1 0
vn 0 1 0
vn -1 0 0
vn 1 0 0
o RAIL_BASE
usemtl palette
f 1/1/1 4/1/1 3/1/1 2/1/1
f 5/1/2 6/1/2 7/1/2 8/1/2
f 1/1/3 2/1/3 6/1/3 5/1/3
f 4/1/4 8/1/4 7/1/4 3/1/4
f 1/1/5 5/1/5 8/1/5 4/1/5
f 2/1/6 3/1/6 7/1/6 6/1/6
f 9/2/1 12/2/1 11/2/1 10/2/1
f 13/2/2 14/2/2 15/2/2 16/2/2
f 9/2/3 10/2/3 14/2/3 13/2/3
f 12/2/4 16/2/4 15/2/4 11/2/4
f 9/2/5 13/2/5 16/2/5 12/2/5
f 10/2/6 11/2/6 15/2/6 14/2/6
f 17/2/1 20/2/1 19/2/1 18/2/1
f 21/2/2 22/2/2 23/2/2 24/2/2
f 17/2/3 18/2/3 22/2/3 21/2/3
f 20/2/4 24/2/4 23/2/4 19/2/4
f 17/2/5 21/2/5 24/2/5 20/2/5
f 18/2/6 19/2/6 23/2/6 22/2/6
o RAIL_LEFT
usemtl palette
f 25/6/1 28/6/1 27/6/1 26/6/1
f 29/6/2 30/6/2 31/6/2 32/6/2
f 25/6/3 26/6/3 30/6/3 29/6/3
f 28/6/4 32/6/4 31/6/4 27/6/4
f 25/6/5 29/6/5 32/6/5 28/6/5
f 26/6/6 27/6/6 31/6/6 30/6/6
o RAIL_RIGHT
usemtl palette
f 33/4/1 36/4/1 35/4/1 34/4/1
f 37/4/2 38/4/2 39/4/2 40/4/2
f 33/4/3 34/4/3 38/4/3 37/4/3
f 36/4/4 40/4/4 39/4/4 35/4/4
f 33/4/5 37/4/5 40/4/5 36/4/5
f 34/4/6 35/4/6 39/4/6 38/4/6
